<?xml version="1.0" encoding="UTF-8"?>
<svg id="Layer_1" xmlns="http://www.w3.org/2000/svg" version="1.1" viewBox="0 0 792 99">
  <!-- Generator: Adobe Illustrator 29.5.0, SVG Export Plug-In . SVG Version: 2.1.0 Build 137)  -->
  <defs>
    <style>
      .st0 {
        fill: #fff;
      }
    </style>
  </defs>
  <path class="st0" d="M4.3,4.17h10.53v10.66H4.17V4.17h.13ZM17.3,4.17h10.53v10.66h-10.66V4.17h.13ZM30.3,4.17h10.53v10.66h-10.66V4.17h.13ZM43.3,4.17h10.53v10.66h-10.66V4.17h.13ZM17.3,17.17h10.53v10.66h-10.66v-10.66h.13ZM56.3,17.17h10.53v10.66h-10.66v-10.66h.13ZM17.3,30.17h10.53v10.66h-10.66v-10.66h.13ZM56.3,30.17h10.53v10.66h-10.66v-10.66h.13ZM17.3,43.17h10.53v10.66h-10.66v-10.66h.13ZM56.3,43.17h10.53v10.66h-10.66v-10.66h.13ZM17.3,56.17h10.53v10.66h-10.66v-10.66h.13ZM56.3,56.17h10.53v10.66h-10.66v-10.66h.13ZM17.3,69.17h10.53v10.66h-10.66v-10.66h.13ZM56.3,69.17h10.53v10.66h-10.66v-10.66h.13ZM4.3,82.17h10.53v10.66H4.17v-10.66h.13ZM17.3,82.17h10.53v10.66h-10.66v-10.66h.13ZM30.3,82.17h10.53v10.66h-10.66v-10.66h.13ZM43.3,82.17h10.53v10.66h-10.66v-10.66h.13ZM89.25,94v-48.9h7.7v6h1.4c.87-2.13,2.2-3.7,4-4.7,1.8-1,4.17-1.5,7.1-1.5h5.8v7.2h-6.3c-3.53,0-6.4,1-8.6,3-2.13,1.93-3.2,4.97-3.2,9.1v29.8h-7.9ZM158.59,67.54h-27.88c-.13,1.92-.19,3.35-.19,4.3,0,7.03,1.09,12.32,3.27,15.87,2.21,3.52,5.5,5.27,9.86,5.27,5.92,0,10.12-2.65,12.6-7.96h2.34c-1.04,3.32-3.11,5.92-6.2,7.81-3.09,1.86-6.46,2.78-10.11,2.78-3.38,0-6.59-.85-9.62-2.54-3-1.73-5.45-4.15-7.37-7.28-1.92-3.12-2.88-6.92-2.88-11.38,0-6.32,1.86-11.56,5.57-15.72,3.71-4.2,8.35-6.3,13.92-6.3,5.24,0,9.29,1.6,12.16,4.79,2.87,3.19,4.38,6.64,4.54,10.35ZM150.04,65.58c.1-.75.15-1.42.15-2,0-2.86-.85-5.08-2.54-6.64-1.66-1.6-3.71-2.39-6.15-2.39-5.92,0-9.46,3.68-10.6,11.04h19.14ZM182.49,95.2c-4.8,0-8.57-1.13-11.3-3.4-2.73-2.27-4.1-5.37-4.1-9.3s1.27-6.87,3.8-9c2.6-2.13,5.7-3.6,9.3-4.4,3.6-.87,7.7-1.47,12.3-1.8,4-.27,7.07-.73,9.2-1.4,2.2-.67,3.3-1.87,3.3-3.6,0-3.87-1.3-6.93-3.9-9.2-2.6-2.33-5.87-3.5-9.8-3.5-4.13,0-7.53,1.17-10.2,3.5-2.67,2.27-4.3,5.43-4.9,9.5h-7.5c.4-4.07,1.6-7.57,3.6-10.5,2.07-3,4.73-5.27,8-6.8,3.33-1.53,7.03-2.3,11.1-2.3s7.77.8,10.9,2.4c3.2,1.6,5.67,3.93,7.4,7,1.8,3.07,2.7,6.63,2.7,10.7v23.8h6.9v7.1h-14.2v-16.3c-1.47,5.2-4.2,9.43-8.2,12.7-4,3.2-8.8,4.8-14.4,4.8ZM185.9,88.8c3.6,0,6.83-.83,9.7-2.5,2.93-1.73,5.23-4,6.9-6.8,1.67-2.87,2.5-5.93,2.5-9.2l.1-4c-.93.8-2.23,1.4-3.9,1.8-1.6.4-3.77.7-6.5.9-.13,0-.3.03-.5.1h-.5c-6.33.53-11,1.67-14,3.4-3,1.67-4.5,4.17-4.5,7.5,0,2.87.97,5.07,2.9,6.6,1.93,1.47,4.53,2.2,7.8,2.2ZM301.54,59h-10.1c-3.9,0-9.8,2.1-9.7,8.2v26.8h-9.7v-23.3c0-6.7-2.1-11.7-13.3-11.7h-19.4v35h-10.8v-50h31.5c6.1,0,14.1,1.2,18.5,7.8,6.1-6.1,11.7-7.8,19.4-7.8h2.9c9.3,0,23.8,1.2,23.8,20.3v29.7h-9.6v-23.3c0-7.1-2.2-11.7-13.5-11.7ZM389.27,84.3h-6.3V27.6h6.3v-6.2h6.2v-6.1h19.6v6.1h6.1v6.2h6.2v13.5h-7.2v-12.4h-6.2v-6.2h-17.5v6.2h-6.1v54.6h6.1v6.1h17.5v-6.1h6.2v-18.6h7.2v19.6h-6.2v6.2h-6.1v6.3h-19.6v-6.3h-6.2v-6.2ZM476.87,44c12.9,0,23.8,9,23.8,25s-10.9,24.9-23.8,25h-17.8c-12.8-.1-23.5-8.9-23.5-25s10.7-25,23.5-25h17.8ZM483.47,79c5.6-.2,10.2-4,10.2-10,0-6.9-5.5-10-10.2-10h-30.2c-5.6,0-10.7,3-10.7,10,0,6,5.1,9.8,10.7,10h30.2ZM521.38,26.86v53.42c0,4.26.05,6.95.15,8.06.13,1.11.6,1.95,1.42,2.54.81.59,2.26.88,4.35.88h1.17v2.25h-21.39v-2.25h1.37c1.95,0,3.34-.26,4.15-.78.85-.55,1.35-1.32,1.51-2.3.16-.98.24-3.78.24-8.4v-39.55c0-4.2-.38-6.84-1.12-7.91-.75-1.11-2.57-1.66-5.47-1.66v-2.25c1.99,0,4.31-.23,6.98-.68,2.7-.46,4.56-.91,5.57-1.37h1.07ZM565.32,87.65c0,.33-.13.62-.39.88-1.04.98-2.31,2.08-3.81,3.32-1.5,1.24-3.09,2.38-4.78,3.42-1.63,1.04-3.32,1.92-5.08,2.64-1.69.72-3.26,1.07-4.69,1.07-2.08,0-3.71-.52-4.88-1.56-1.17-1.04-2.08-2.31-2.73-3.81-.59-1.56-.98-3.22-1.17-4.98-.13-1.82-.19-3.52-.19-5.08,0-3.65.36-7.23,1.07-10.74s1.5-7.03,2.34-10.55c1.63-6.84,3.58-13.51,5.86-20.02,2.34-6.51,5.27-12.83,8.79-18.95l1.95-3.52c.72-1.17,1.46-2.28,2.25-3.32.26-.39.62-.59,1.08-.59.39,0,.75.13,1.07.39.39.26.59.62.59,1.07,0,.2-.03.36-.1.49-2.93,7.55-5.96,15.07-9.08,22.56s-5.66,15.17-7.62,23.05c-.91,3.52-1.76,7.1-2.54,10.74-.72,3.58-1.07,7.23-1.07,10.94v3.22c.07,1.11.23,2.15.49,3.12.32.98.81,1.82,1.46,2.54.72.65,1.72.98,3.03.98,1.43,0,3.03-.46,4.79-1.37,1.82-.91,3.55-1.92,5.18-3.03,1.69-1.17,3.16-2.21,4.4-3.12,1.24-.91,1.98-1.37,2.25-1.37.39,0,.75.16,1.07.49.33.33.49.68.49,1.07ZM599.8,67.54h-27.88c-.13,1.92-.2,3.35-.2,4.3,0,7.03,1.09,12.32,3.27,15.87,2.21,3.52,5.5,5.27,9.86,5.27,5.93,0,10.12-2.65,12.6-7.96h2.34c-1.04,3.32-3.11,5.92-6.2,7.81-3.09,1.86-6.46,2.78-10.11,2.78-3.38,0-6.59-.85-9.62-2.54-2.99-1.73-5.45-4.15-7.37-7.28-1.92-3.12-2.88-6.92-2.88-11.38,0-6.32,1.86-11.56,5.57-15.72,3.71-4.2,8.35-6.3,13.92-6.3,5.24,0,9.29,1.6,12.16,4.79,2.86,3.19,4.38,6.64,4.54,10.35ZM591.25,65.58c.1-.75.15-1.42.15-2,0-2.86-.85-5.08-2.54-6.64-1.66-1.6-3.71-2.39-6.15-2.39-5.92,0-9.46,3.68-10.6,11.04h19.14ZM634.6,95c-5,0-9.5-1.13-13.5-3.4s-7.13-5.37-9.4-9.3c-2.27-3.93-3.4-8.37-3.4-13.3s1.13-9.37,3.4-13.3c2.27-3.93,5.4-7.03,9.4-9.3,4-2.27,8.5-3.4,13.5-3.4,4.4,0,8.37.83,11.9,2.5,3.6,1.67,6.5,4.03,8.7,7.1s3.6,6.57,4.2,10.5h-7.9c-.93-3.93-2.9-7.03-5.9-9.3-3-2.33-6.67-3.5-11-3.5-3.47,0-6.6.83-9.4,2.5-2.8,1.6-5,3.83-6.6,6.7-1.6,2.87-2.4,6.03-2.4,9.5s.8,6.63,2.4,9.5c1.6,2.87,3.8,5.13,6.6,6.8,2.8,1.6,5.93,2.4,9.4,2.4,4.33,0,8-1.17,11-3.5,3-2.33,4.97-5.47,5.9-9.4h7.9c-.6,3.93-2,7.43-4.2,10.5-2.2,3.07-5.1,5.47-8.7,7.2-3.53,1.67-7.5,2.5-11.9,2.5ZM691.2,56.26h-12.06v24.17c0,3.71.16,6.22.49,7.52.33,1.27,1.01,2.29,2.05,3.08,1.07.78,2.21,1.17,3.42,1.17,2.34,0,4.38-1.33,6.1-4l1.56.93c-1.01,2.15-2.51,3.78-4.49,4.88-1.95,1.07-3.94,1.61-5.96,1.61-2.34,0-4.41-.68-6.2-2.05-1.76-1.4-2.86-3.03-3.32-4.88-.42-1.86-.64-5.11-.64-9.77v-22.66h-5.81v-2.25c2.67-.07,5.06-1.19,7.18-3.37,2.12-2.18,3.47-5.24,4.05-9.18h1.56v12.55h12.06v2.25ZM724.36,95c-5,0-9.57-1.13-13.7-3.4-4.07-2.27-7.27-5.37-9.6-9.3-2.27-4-3.4-8.43-3.4-13.3s1.13-9.27,3.4-13.2c2.33-4,5.53-7.13,9.6-9.4,4.13-2.27,8.7-3.4,13.7-3.4s9.43,1.13,13.5,3.4c4.07,2.27,7.27,5.4,9.6,9.4,2.4,3.93,3.6,8.33,3.6,13.2s-1.2,9.3-3.6,13.3c-2.33,3.93-5.53,7.03-9.6,9.3-4.07,2.27-8.57,3.4-13.5,3.4ZM724.36,87.5c3.4,0,6.5-.8,9.3-2.4,2.87-1.67,5.1-3.9,6.7-6.7,1.67-2.8,2.5-5.93,2.5-9.4s-.83-6.6-2.5-9.4c-1.6-2.87-3.83-5.1-6.7-6.7-2.8-1.67-5.9-2.5-9.3-2.5s-6.63.83-9.5,2.5c-2.8,1.6-5.03,3.83-6.7,6.7-1.6,2.8-2.4,5.93-2.4,9.4s.8,6.6,2.4,9.4c1.67,2.8,3.9,5.03,6.7,6.7,2.87,1.6,6.03,2.4,9.5,2.4ZM772.31,62.6c1.11-2.9,2.9-5.32,5.37-7.28,2.51-1.95,4.95-2.93,7.32-2.93,2.15,0,3.84.67,5.08,2,1.24,1.33,1.86,2.7,1.86,4.1,0,.94-.33,1.76-.98,2.44-.62.68-1.38,1.03-2.29,1.03-1.63,0-2.86-1.2-3.71-3.61-.59-1.63-1.47-2.44-2.64-2.44-1.4,0-3.08.96-5.03,2.88-1.95,1.89-3.21,3.86-3.76,5.91-.55,2.05-.83,4.87-.83,8.45v7.13c0,4.26.05,6.95.15,8.06.13,1.11.6,1.95,1.42,2.54.81.59,2.26.88,4.34.88h1.37v2.25h-21.24v-2.25h1.03c1.95,0,3.34-.26,4.15-.78.85-.55,1.35-1.32,1.51-2.3.16-.98.24-3.78.24-8.4v-11.28c0-4.3-.07-6.98-.2-8.06-.1-1.11-.55-1.95-1.37-2.54-.81-.62-2.26-.93-4.35-.93h-1.03v-2.2c3.06-.36,7.06-1.32,12.01-2.88.94,2.57,1.46,5.97,1.56,10.21Z"/>
  <path d="M2.25,1.09h10.53v10.66H2.12V1.09h.13ZM15.25,1.09h10.53v10.66h-10.66V1.09h.13ZM28.25,1.09h10.53v10.66h-10.66V1.09h.13ZM41.25,1.09h10.53v10.66h-10.66V1.09h.13ZM15.25,14.09h10.53v10.66h-10.66v-10.66h.13ZM54.25,14.09h10.53v10.66h-10.66v-10.66h.13ZM15.25,27.09h10.53v10.66h-10.66v-10.66h.13ZM54.25,27.09h10.53v10.66h-10.66v-10.66h.13ZM15.25,40.09h10.53v10.66h-10.66v-10.66h.13ZM54.25,40.09h10.53v10.66h-10.66v-10.66h.13ZM15.25,53.09h10.53v10.66h-10.66v-10.66h.13ZM54.25,53.09h10.53v10.66h-10.66v-10.66h.13ZM15.25,66.09h10.53v10.66h-10.66v-10.66h.13ZM54.25,66.09h10.53v10.66h-10.66v-10.66h.13ZM2.25,79.09h10.53v10.66H2.12v-10.66h.13ZM15.25,79.09h10.53v10.66h-10.66v-10.66h.13ZM28.25,79.09h10.53v10.66h-10.66v-10.66h.13ZM41.25,79.09h10.53v10.66h-10.66v-10.66h.13ZM87.2,90.92v-48.9h7.7v6h1.4c.87-2.13,2.2-3.7,4-4.7,1.8-1,4.17-1.5,7.1-1.5h5.8v7.2h-6.3c-3.53,0-6.4,1-8.6,3-2.13,1.93-3.2,4.97-3.2,9.1v29.8h-7.9ZM156.53,64.46h-27.88c-.13,1.92-.19,3.35-.19,4.3,0,7.03,1.09,12.32,3.27,15.87,2.21,3.52,5.5,5.27,9.86,5.27,5.92,0,10.12-2.65,12.6-7.96h2.34c-1.04,3.32-3.11,5.92-6.2,7.81-3.09,1.86-6.46,2.78-10.11,2.78-3.38,0-6.59-.85-9.62-2.54-3-1.73-5.45-4.15-7.37-7.28-1.92-3.12-2.88-6.92-2.88-11.38,0-6.32,1.86-11.56,5.57-15.72,3.71-4.2,8.35-6.3,13.92-6.3,5.24,0,9.29,1.6,12.16,4.79,2.87,3.19,4.38,6.64,4.54,10.35ZM147.99,62.51c.1-.75.15-1.42.15-2,0-2.86-.85-5.08-2.54-6.64-1.66-1.6-3.71-2.39-6.15-2.39-5.92,0-9.46,3.68-10.6,11.04h19.14ZM180.44,92.12c-4.8,0-8.57-1.13-11.3-3.4-2.73-2.27-4.1-5.37-4.1-9.3s1.27-6.87,3.8-9c2.6-2.13,5.7-3.6,9.3-4.4,3.6-.87,7.7-1.47,12.3-1.8,4-.27,7.07-.73,9.2-1.4,2.2-.67,3.3-1.87,3.3-3.6,0-3.87-1.3-6.93-3.9-9.2-2.6-2.33-5.87-3.5-9.8-3.5-4.13,0-7.53,1.17-10.2,3.5-2.67,2.27-4.3,5.43-4.9,9.5h-7.5c.4-4.07,1.6-7.57,3.6-10.5,2.07-3,4.73-5.27,8-6.8,3.33-1.53,7.03-2.3,11.1-2.3s7.77.8,10.9,2.4c3.2,1.6,5.67,3.93,7.4,7,1.8,3.07,2.7,6.63,2.7,10.7v23.8h6.9v7.1h-14.2v-16.3c-1.47,5.2-4.2,9.43-8.2,12.7-4,3.2-8.8,4.8-14.4,4.8ZM183.84,85.72c3.6,0,6.83-.83,9.7-2.5,2.93-1.73,5.23-4,6.9-6.8,1.67-2.87,2.5-5.93,2.5-9.2l.1-4c-.93.8-2.23,1.4-3.9,1.8-1.6.4-3.77.7-6.5.9-.13,0-.3.03-.5.1h-.5c-6.33.53-11,1.67-14,3.4-3,1.67-4.5,4.17-4.5,7.5,0,2.87.97,5.07,2.9,6.6,1.93,1.47,4.53,2.2,7.8,2.2ZM299.49,55.92h-10.1c-3.9,0-9.8,2.1-9.7,8.2v26.8h-9.7v-23.3c0-6.7-2.1-11.7-13.3-11.7h-19.4v35h-10.8v-50h31.5c6.1,0,14.1,1.2,18.5,7.8,6.1-6.1,11.7-7.8,19.4-7.8h2.9c9.3,0,23.8,1.2,23.8,20.3v29.7h-9.6v-23.3c0-7.1-2.2-11.7-13.5-11.7ZM387.22,81.22h-6.3V24.52h6.3v-6.2h6.2v-6.1h19.6v6.1h6.1v6.2h6.2v13.5h-7.2v-12.4h-6.2v-6.2h-17.5v6.2h-6.1v54.6h6.1v6.1h17.5v-6.1h6.2v-18.6h7.2v19.6h-6.2v6.2h-6.1v6.3h-19.6v-6.3h-6.2v-6.2ZM474.82,40.92c12.9,0,23.8,9,23.8,25s-10.9,24.9-23.8,25h-17.8c-12.8-.1-23.5-8.9-23.5-25s10.7-25,23.5-25h17.8ZM481.41,75.92c5.6-.2,10.2-4,10.2-10,0-6.9-5.5-10-10.2-10h-30.2c-5.6,0-10.7,3-10.7,10,0,6,5.1,9.8,10.7,10h30.2ZM519.33,23.79v53.42c0,4.26.05,6.95.15,8.06.13,1.11.6,1.95,1.42,2.54.81.59,2.26.88,4.35.88h1.17v2.25h-21.39v-2.25h1.37c1.95,0,3.34-.26,4.15-.78.85-.55,1.35-1.32,1.51-2.3.16-.98.24-3.78.24-8.4v-39.55c0-4.2-.38-6.84-1.12-7.91-.75-1.11-2.57-1.66-5.47-1.66v-2.25c1.99,0,4.31-.23,6.98-.68,2.7-.46,4.56-.91,5.57-1.37h1.07ZM563.27,84.58c0,.33-.13.62-.39.88-1.04.98-2.31,2.08-3.81,3.32-1.5,1.24-3.09,2.38-4.78,3.42-1.63,1.04-3.32,1.92-5.08,2.64-1.69.72-3.26,1.07-4.69,1.07-2.08,0-3.71-.52-4.88-1.56-1.17-1.04-2.08-2.31-2.73-3.81-.59-1.56-.98-3.22-1.17-4.98-.13-1.82-.19-3.52-.19-5.08,0-3.65.36-7.23,1.07-10.74s1.5-7.03,2.34-10.55c1.63-6.84,3.58-13.51,5.86-20.02,2.34-6.51,5.27-12.83,8.79-18.95l1.95-3.52c.72-1.17,1.46-2.28,2.25-3.32.26-.39.62-.59,1.08-.59.39,0,.75.13,1.07.39.39.26.59.62.59,1.07,0,.2-.03.36-.1.49-2.93,7.55-5.96,15.07-9.08,22.56s-5.66,15.17-7.62,23.05c-.91,3.52-1.76,7.1-2.54,10.74-.72,3.58-1.07,7.23-1.07,10.94v3.22c.07,1.11.23,2.15.49,3.12.32.98.81,1.82,1.46,2.54.72.65,1.72.98,3.03.98,1.43,0,3.03-.46,4.79-1.37,1.82-.91,3.55-1.92,5.18-3.03,1.69-1.17,3.16-2.21,4.4-3.12,1.24-.91,1.98-1.37,2.25-1.37.39,0,.75.16,1.07.49.33.33.49.68.49,1.07ZM597.74,64.46h-27.88c-.13,1.92-.2,3.35-.2,4.3,0,7.03,1.09,12.32,3.27,15.87,2.21,3.52,5.5,5.27,9.86,5.27,5.93,0,10.12-2.65,12.6-7.96h2.34c-1.04,3.32-3.11,5.92-6.2,7.81-3.09,1.86-6.46,2.78-10.11,2.78-3.38,0-6.59-.85-9.62-2.54-2.99-1.73-5.45-4.15-7.37-7.28-1.92-3.12-2.88-6.92-2.88-11.38,0-6.32,1.86-11.56,5.57-15.72,3.71-4.2,8.35-6.3,13.92-6.3,5.24,0,9.29,1.6,12.16,4.79,2.86,3.19,4.38,6.64,4.54,10.35ZM589.2,62.51c.1-.75.15-1.42.15-2,0-2.86-.85-5.08-2.54-6.64-1.66-1.6-3.71-2.39-6.15-2.39-5.92,0-9.46,3.68-10.6,11.04h19.14ZM632.55,91.92c-5,0-9.5-1.13-13.5-3.4s-7.13-5.37-9.4-9.3c-2.27-3.93-3.4-8.37-3.4-13.3s1.13-9.37,3.4-13.3c2.27-3.93,5.4-7.03,9.4-9.3,4-2.27,8.5-3.4,13.5-3.4,4.4,0,8.37.83,11.9,2.5,3.6,1.67,6.5,4.03,8.7,7.1s3.6,6.57,4.2,10.5h-7.9c-.93-3.93-2.9-7.03-5.9-9.3-3-2.33-6.67-3.5-11-3.5-3.47,0-6.6.83-9.4,2.5-2.8,1.6-5,3.83-6.6,6.7-1.6,2.87-2.4,6.03-2.4,9.5s.8,6.63,2.4,9.5c1.6,2.87,3.8,5.13,6.6,6.8,2.8,1.6,5.93,2.4,9.4,2.4,4.33,0,8-1.17,11-3.5,3-2.33,4.97-5.47,5.9-9.4h7.9c-.6,3.93-2,7.43-4.2,10.5-2.2,3.07-5.1,5.47-8.7,7.2-3.53,1.67-7.5,2.5-11.9,2.5ZM689.15,53.18h-12.06v24.17c0,3.71.16,6.22.49,7.52.33,1.27,1.01,2.29,2.05,3.08,1.07.78,2.21,1.17,3.42,1.17,2.34,0,4.38-1.33,6.1-4l1.56.93c-1.01,2.15-2.51,3.78-4.49,4.88-1.95,1.07-3.94,1.61-5.96,1.61-2.34,0-4.41-.68-6.2-2.05-1.76-1.4-2.86-3.03-3.32-4.88-.42-1.86-.64-5.11-.64-9.77v-22.66h-5.81v-2.25c2.67-.07,5.06-1.19,7.18-3.37,2.12-2.18,3.47-5.24,4.05-9.18h1.56v12.55h12.06v2.25ZM722.31,91.92c-5,0-9.57-1.13-13.7-3.4-4.07-2.27-7.27-5.37-9.6-9.3-2.27-4-3.4-8.43-3.4-13.3s1.13-9.27,3.4-13.2c2.33-4,5.53-7.13,9.6-9.4,4.13-2.27,8.7-3.4,13.7-3.4s9.43,1.13,13.5,3.4c4.07,2.27,7.27,5.4,9.6,9.4,2.4,3.93,3.6,8.33,3.6,13.2s-1.2,9.3-3.6,13.3c-2.33,3.93-5.53,7.03-9.6,9.3-4.07,2.27-8.57,3.4-13.5,3.4ZM722.31,84.42c3.4,0,6.5-.8,9.3-2.4,2.87-1.67,5.1-3.9,6.7-6.7,1.67-2.8,2.5-5.93,2.5-9.4s-.83-6.6-2.5-9.4c-1.6-2.87-3.83-5.1-6.7-6.7-2.8-1.67-5.9-2.5-9.3-2.5s-6.63.83-9.5,2.5c-2.8,1.6-5.03,3.83-6.7,6.7-1.6,2.8-2.4,5.93-2.4,9.4s.8,6.6,2.4,9.4c1.67,2.8,3.9,5.03,6.7,6.7,2.87,1.6,6.03,2.4,9.5,2.4ZM770.25,59.53c1.11-2.9,2.9-5.32,5.37-7.28,2.51-1.95,4.95-2.93,7.32-2.93,2.15,0,3.84.67,5.08,2,1.24,1.33,1.86,2.7,1.86,4.1,0,.94-.33,1.76-.98,2.44-.62.68-1.38,1.03-2.29,1.03-1.63,0-2.86-1.2-3.71-3.61-.59-1.63-1.47-2.44-2.64-2.44-1.4,0-3.08.96-5.03,2.88-1.95,1.89-3.21,3.86-3.76,5.91-.55,2.05-.83,4.87-.83,8.45v7.13c0,4.26.05,6.95.15,8.06.13,1.11.6,1.95,1.42,2.54.81.59,2.26.88,4.34.88h1.37v2.25h-21.24v-2.25h1.03c1.95,0,3.34-.26,4.15-.78.85-.55,1.35-1.32,1.51-2.3.16-.98.24-3.78.24-8.4v-11.28c0-4.3-.07-6.98-.2-8.06-.1-1.11-.55-1.95-1.37-2.54-.81-.62-2.26-.93-4.35-.93h-1.03v-2.2c3.06-.36,7.06-1.32,12.01-2.88.94,2.57,1.46,5.97,1.56,10.21Z"/>
</svg>